<svg xmlns="http://www.w3.org/2000/svg" id="Calque_1" viewBox="0 0 210.24 137.55"><defs><style>.cls-1{fill:#f59d19;}.cls-2{fill:#2f828a;}.cls-3{fill:#221b2b;}.cls-4{fill:#26a648;}.cls-5{fill:#524c99;}</style></defs><path class="cls-3" d="m15.32,90.62c2,0,3.8.46,5.4,1.38,1.6.92,2.89,2.19,3.87,3.8.98,1.62,1.53,3.45,1.64,5.51H4.41c.15-2.06.7-3.9,1.66-5.54.96-1.64,2.24-2.9,3.84-3.8,1.6-.9,3.4-1.35,5.4-1.35m11.81,4.57c-1.18-2.2-2.8-3.92-4.85-5.15-2.05-1.23-4.37-1.85-6.95-1.85s-4.91.62-6.98,1.87c-2.07,1.25-3.7,2.98-4.88,5.21-1.18,2.22-1.77,4.73-1.77,7.52s.63,5.35,1.88,7.55c1.25,2.2,2.99,3.93,5.21,5.18,2.22,1.25,4.74,1.87,7.58,1.87,2.18,0,4.21-.4,6.08-1.21,1.87-.81,3.43-1.96,4.66-3.47l-1.58-1.82c-1.05,1.32-2.37,2.32-3.95,3-1.58.68-3.3,1.02-5.15,1.02-2.26,0-4.28-.48-6.08-1.43-1.8-.95-3.23-2.31-4.28-4.05-1.06-1.75-1.62-3.74-1.69-5.98h24.48l.05-.77c0-2.79-1.77-7.49-1.77-7.49"></path><path class="cls-3" d="m190.28,115.42c-1.21,0-2.15-.44-2.15-2.09v-20.22c1.43-.44,2.15-.83,3.2-.83,1.1,0,1.98.83,1.98,2.42v18.13c0,1.87-.55,2.59-2.04,2.59v.5s3.08-.16,8.21-.16c5.45,0,9.09.16,9.09.16v-.5c-2.15,0-3.03-.44-3.03-2.92v-16.36c0-5.07-2.54-7.77-6.94-7.77s-7.22,3.08-10.47,4.3v-4.3s-7,2.7-15.37,2.7l.22.44c1.98,0,2.92.77,2.92,2.92v17.14c0,2.37-.99,3.86-3.14,3.86v.5s3.8-.16,9.31-.16,8.21.16,8.21.16v-.5Zm-28.6-28.87c4.24,0,6.34-2.26,6.34-5.29s-2.09-5.46-6.34-5.46-6.28,2.37-6.28,5.46,2.04,5.29,6.28,5.29m8.38,28.87c-1.21,0-2.15-.44-2.15-2.09v-24.96s-7,2.7-15.37,2.7l.22.44c1.98,0,2.92.77,2.92,2.92v17.14c0,2.37-.99,3.86-3.14,3.86v.5s3.8-.16,9.31-.16,8.21.16,8.21.16v-.5Zm-37.47-1.82c-1.43,0-3.42-2.2-3.42-11.35,0-9.92,1.21-13.44,3.08-13.44s3.25,2.98,3.25,11.24v12.23c-1.38.61-1.93,1.32-2.92,1.32m-6.12,3.42c4.24,0,6.39-2.86,9.04-4.3l.44,4.3s6.5-2.7,14.93-2.7l-.28-.44c-1.98,0-2.92-.72-2.92-2.86v-36.42s-6.94,2.75-15.37,2.75l.22.5c1.93,0,2.98.61,2.98,2.59v8.1c-.66-.06-1.32-.17-1.98-.17-10.63,0-17.25,6.89-17.25,16.25,0,6.94,4.02,12.4,10.19,12.4m-21.6-23.69c1.6,0,2.31,1.1,2.31,2.53,0,.99-.39,1.98-.66,2.53.72.61,2.31,1.1,3.58,1.1,3.69,0,5.62-2.87,5.62-5.84s-2.09-5.29-5.23-5.29c-4.3,0-5.67,4.08-8.32,5.01v-5.01s-7,2.7-15.37,2.7l.22.44c1.98,0,2.92.77,2.92,2.92v17.14c0,2.37-.99,3.86-3.14,3.86v.5s3.8-.16,9.31-.16,8.98.16,8.98.16v-.5c-1.87,0-2.92-.55-2.92-2.31v-19.23c.88-.16,1.65-.55,2.7-.55m-22.65,6.12c0-7.55-3.08-11.07-12.56-11.07-6.72,0-14.22,2.59-14.22,7.22,0,2.48,1.93,4.19,4.9,4.19,1.76,0,4.35-.77,5.84-1.93-1.05-1.54-1.6-2.92-1.6-4.96,0-2.26,1.05-4.08,3.08-4.08s2.86,1.54,2.86,5.34c0,4.19-.33,7.93-.33,7.93-10.69,0-16.58,3.36-16.58,8.98,0,4.19,3.47,5.95,7.44,5.95,4.79,0,7.77-2.59,10.25-3.25,1.49,2.31,4.24,3.09,7.16,3.09,3.31,0,6.06-1.1,7.11-2.92l-.22-.16c-.39.5-1.05.88-1.6.88-1.16,0-2.09-.72-2.09-3.58,0-3.86.55-6.39.55-11.63m-11.07,13.89c-1.1.39-1.82.77-2.75.77-1.71,0-2.48-1.6-2.48-4.13,0-3.58,1.27-6.78,4.3-7.38,0,0-.22,1.49-.22,4.46,0,4.79,1.16,6.28,1.16,6.28m-40.88,21.26l.33.39c3.75-3.8,9.86-3.03,14-6.56,2.59-2.2,3.91-5.01,3.91-10.03v-33.6c0-4.3,1.32-6.89,4.13-6.89v-.55s-4.85.17-10.58.17-10.58-.17-10.58-.17v.55c2.81,0,4.13.99,4.13,4.9v39.17c0,2.65-.17,5.9-1.65,8.1-1.32,1.98-2.64,2.87-3.69,4.52"></path><path class="cls-3" d="m204.67,129.82c.46,0,.84.14,1.14.4.31.27.49.62.55,1.05h-3.4c.07-.44.26-.79.57-1.06.31-.27.69-.4,1.14-.4m3.03,1.97c0-.61-.13-1.15-.39-1.62-.26-.47-.62-.83-1.08-1.09-.46-.26-.98-.39-1.56-.39s-1.12.13-1.59.39c-.47.26-.84.63-1.1,1.09-.27.47-.4.99-.4,1.57s.14,1.12.41,1.59c.27.47.66.83,1.16,1.09.5.26,1.08.39,1.74.39.52,0,.98-.08,1.39-.25.41-.16.75-.41,1.02-.73l-.75-.86c-.43.43-.97.65-1.62.65-.52,0-.95-.13-1.29-.39-.35-.26-.56-.61-.64-1.05h4.7c.01-.18.02-.32.02-.41m-8.16-4.01c.26,0,.48-.08.65-.25.17-.17.25-.38.25-.62,0-.23-.09-.42-.26-.58-.17-.15-.39-.23-.64-.23s-.47.08-.64.24c-.17.16-.26.36-.26.6s.09.44.26.6c.17.16.38.24.64.24m-.71,6.97h1.4v-5.99h-1.4v5.99Zm-3.32-5.11v-.87h-1.33v5.99h1.4v-2.9c0-.6.15-1.05.46-1.37.31-.32.73-.48,1.28-.48.1,0,.21.01.32.03v-1.33c-1.02,0-1.73.31-2.13.94m-5.71.18c.46,0,.84.14,1.14.4.31.27.49.62.55,1.05h-3.4c.07-.44.26-.79.57-1.06.31-.27.69-.4,1.14-.4m3.03,1.97c0-.61-.13-1.15-.39-1.62-.26-.47-.62-.83-1.08-1.09-.46-.26-.98-.39-1.56-.39s-1.12.13-1.59.39c-.47.26-.84.63-1.1,1.09s-.4.99-.4,1.57.14,1.12.41,1.59c.27.47.66.83,1.16,1.09.5.26,1.08.39,1.74.39.52,0,.98-.08,1.39-.25.41-.16.75-.41,1.02-.73l-.75-.86c-.43.43-.97.65-1.62.65-.52,0-.95-.13-1.3-.39-.35-.26-.56-.61-.64-1.05h4.7c.01-.18.02-.32.02-.41m-6.97,1.64c-.21.17-.47.25-.78.25-.27,0-.48-.08-.62-.23s-.21-.38-.21-.67v-2.85h1.6v-1.12h-1.6v-1.37h-1.4v1.37h-.99v1.12h.99v2.88c0,.66.18,1.16.54,1.5.36.34.87.51,1.53.51.26,0,.51-.03.74-.1.24-.07.43-.17.6-.3l-.39-1Zm-7.13,1.4c.84,0,1.5-.17,1.98-.5.49-.34.73-.78.73-1.35,0-.43-.11-.75-.33-.99-.22-.23-.48-.4-.79-.49-.31-.1-.7-.18-1.18-.26-.48-.08-.83-.17-1.06-.26-.23-.09-.34-.25-.34-.48,0-.2.11-.36.32-.49.21-.12.52-.18.94-.18.63,0,1.21.15,1.71.45l.54-1.07c-.26-.16-.6-.28-1.01-.38-.41-.09-.82-.14-1.23-.14-.81,0-1.45.17-1.92.51-.47.34-.71.79-.71,1.36,0,.43.11.77.34,1.01s.5.41.81.51c.31.1.71.18,1.21.26.47.07.81.15,1.03.24.21.08.32.23.32.44,0,.44-.42.66-1.26.66-.37,0-.74-.05-1.12-.16-.38-.11-.7-.25-.97-.43l-.54,1.07c.28.19.65.36,1.11.48.46.13.94.19,1.42.19m-4.38-7.05c.26,0,.48-.08.65-.25s.25-.38.25-.62c0-.23-.09-.42-.26-.58-.17-.15-.39-.23-.64-.23s-.47.08-.64.24c-.17.16-.26.36-.26.6s.09.44.26.6c.17.16.38.24.64.24m-.71,6.97h1.4v-5.99h-1.4v5.99Zm-3.32-5.11v-.87h-1.33v5.99h1.4v-2.9c0-.6.15-1.05.46-1.37.31-.32.73-.48,1.28-.48.1,0,.21.01.32.03v-1.33c-1.02,0-1.73.31-2.13.94m-5.87,3.99c-.51,0-.94-.17-1.27-.51-.33-.34-.5-.8-.5-1.36s.17-1.01.5-1.36c.33-.34.76-.52,1.27-.52s.94.17,1.28.52.5.8.5,1.36-.17,1.01-.5,1.36c-.34.34-.76.51-1.28.51m0,1.2c.61,0,1.16-.13,1.65-.39.49-.26.86-.63,1.14-1.09.27-.47.41-1,.41-1.59s-.14-1.12-.41-1.58c-.27-.46-.65-.83-1.14-1.09-.49-.26-1.04-.39-1.65-.39s-1.15.13-1.64.39c-.49.26-.86.62-1.14,1.09-.27.46-.41.99-.41,1.58s.14,1.12.41,1.59c.27.47.65.83,1.14,1.09.49.26,1.03.39,1.64.39m-7.22-1.2c-.34,0-.64-.08-.91-.23-.27-.15-.48-.37-.64-.65s-.24-.61-.24-.99.08-.7.24-.99.37-.5.64-.66c.27-.15.57-.23.91-.23.52,0,.94.17,1.27.52.33.34.5.8.5,1.36s-.17,1.01-.5,1.36c-.33.34-.76.51-1.27.51m.16-4.93c-.39,0-.75.07-1.07.2-.33.13-.61.33-.85.59v-3.06h-1.4v8.32h1.33v-.77c.23.28.52.5.86.64.34.14.72.21,1.13.21.58,0,1.1-.13,1.56-.38.46-.25.82-.61,1.08-1.08.26-.47.39-1,.39-1.61s-.13-1.14-.39-1.6c-.26-.46-.62-.82-1.08-1.08-.46-.25-.98-.38-1.56-.38m-6.64.94v-.87h-1.33v5.99h1.4v-2.9c0-.6.15-1.05.46-1.37s.73-.48,1.28-.48c.1,0,.21.01.32.03v-1.33c-1.02,0-1.73.31-2.13.94m-5.71.18c.46,0,.84.14,1.14.4.31.27.49.62.55,1.05h-3.4c.07-.44.26-.79.57-1.06.31-.27.69-.4,1.14-.4m3.03,1.97c0-.61-.13-1.15-.39-1.62s-.62-.83-1.08-1.09c-.46-.26-.98-.39-1.56-.39s-1.12.13-1.59.39c-.47.26-.84.63-1.1,1.09-.27.47-.4.99-.4,1.57s.14,1.12.41,1.59c.27.47.66.83,1.16,1.09.5.26,1.08.39,1.74.39.52,0,.98-.08,1.39-.25s.75-.41,1.02-.73l-.75-.86c-.43.43-.97.65-1.62.65-.52,0-.95-.13-1.29-.39-.35-.26-.56-.61-.64-1.05h4.7c.01-.18.02-.32.02-.41m-9.96-3.09c-.42,0-.8.07-1.14.2-.34.13-.63.32-.86.57v-3.03h-1.4v8.32h1.4v-3.03c0-.58.15-1.03.45-1.34.3-.31.71-.46,1.22-.46.46,0,.81.13,1.05.4.25.26.37.66.37,1.18v3.25h1.4v-3.43c0-.87-.23-1.52-.68-1.96-.46-.44-1.06-.66-1.82-.66m-5.67-2.34c-.26,0-.48.09-.65.26s-.26.39-.26.66c0,.2.05.38.14.52s.22.25.39.31l-.45,1.73h.91l.58-1.59c.1-.25.16-.44.2-.57.03-.13.05-.26.05-.39,0-.27-.09-.49-.26-.66s-.39-.26-.65-.26m-5.46,7.27c-.34,0-.64-.08-.91-.23-.27-.15-.48-.37-.64-.65-.16-.28-.24-.61-.24-.99s.08-.7.24-.99c.16-.28.37-.5.64-.66.27-.15.57-.23.91-.23s.64.08.91.23c.27.15.48.37.64.66.16.28.24.61.24.99s-.08.7-.24.99c-.16.28-.37.5-.64.65-.27.15-.57.23-.91.23m1.76-7.2v3.07c-.23-.27-.51-.47-.84-.6-.33-.13-.69-.2-1.09-.2-.57,0-1.09.13-1.55.38-.46.25-.82.61-1.08,1.08-.26.46-.39,1-.39,1.6s.13,1.14.39,1.61.62.83,1.08,1.08c.46.25.98.38,1.55.38.41,0,.79-.07,1.13-.21.34-.14.62-.36.86-.64v.77h1.35v-8.32h-1.4Zm-11.93,3.38c.46,0,.84.14,1.14.4.31.27.49.62.55,1.05h-3.4c.07-.44.25-.79.57-1.06.31-.27.69-.4,1.14-.4m3.03,1.97c0-.61-.13-1.15-.39-1.62-.26-.47-.62-.83-1.08-1.09-.46-.26-.98-.39-1.56-.39s-1.12.13-1.59.39c-.47.26-.84.63-1.1,1.09-.27.47-.4.99-.4,1.57s.14,1.12.41,1.59c.27.47.66.83,1.16,1.09.5.26,1.08.39,1.74.39.52,0,.98-.08,1.39-.25s.75-.41,1.02-.73l-.75-.86c-.43.43-.97.65-1.62.65-.52,0-.95-.13-1.29-.39-.35-.26-.56-.61-.64-1.05h4.7c.01-.18.02-.32.02-.41m-8.87,2.96h1.4v-8.32h-1.4v8.32Zm-4.54-1.12c-.51,0-.94-.17-1.27-.51-.33-.34-.5-.8-.5-1.36s.17-1.01.5-1.36c.33-.34.76-.52,1.27-.52s.94.17,1.28.52.51.8.51,1.36-.17,1.01-.51,1.36c-.34.34-.76.51-1.28.51m0,1.2c.61,0,1.16-.13,1.65-.39.49-.26.86-.63,1.14-1.09.27-.47.41-1,.41-1.59s-.14-1.12-.41-1.58c-.27-.46-.65-.83-1.14-1.09-.49-.26-1.04-.39-1.65-.39s-1.15.13-1.64.39c-.49.26-.86.62-1.14,1.09-.27.46-.41.99-.41,1.58s.14,1.12.41,1.59c.27.47.65.83,1.14,1.09.49.26,1.03.39,1.64.39m-6.37,0c.58,0,1.1-.12,1.54-.36s.78-.59,1.01-1.04l-1.08-.63c-.17.28-.39.48-.64.62s-.54.21-.85.21c-.53,0-.97-.17-1.31-.51-.34-.34-.51-.79-.51-1.36s.17-1.02.52-1.36c.34-.34.78-.51,1.3-.51.31,0,.59.07.85.21s.47.35.64.62l1.08-.63c-.22-.45-.56-.79-1-1.03-.44-.24-.96-.36-1.55-.36-.63,0-1.19.13-1.68.39-.49.26-.87.62-1.15,1.09-.28.46-.41.99-.41,1.58s.14,1.12.41,1.59c.28.47.66.83,1.16,1.09.49.26,1.05.39,1.67.39m-8.09-6.88h1.21l1.95-1.53h-1.65l-1.51,1.53Zm.98,1.87c.46,0,.84.14,1.14.4.31.27.49.62.55,1.05h-3.4c.07-.44.26-.79.57-1.06.31-.27.69-.4,1.14-.4m3.03,1.97c0-.61-.13-1.15-.39-1.62-.26-.47-.62-.83-1.08-1.09-.46-.26-.98-.39-1.56-.39s-1.12.13-1.59.39c-.47.26-.84.63-1.1,1.09s-.4.99-.4,1.57.14,1.12.41,1.59.66.83,1.16,1.09c.5.26,1.08.39,1.74.39.51,0,.98-.08,1.39-.25.41-.16.75-.41,1.02-.73l-.75-.86c-.43.43-.97.65-1.62.65-.51,0-.95-.13-1.29-.39-.35-.26-.56-.61-.65-1.05h4.7c.01-.18.02-.32.02-.41m-13.09-1.97c.46,0,.84.14,1.14.4.31.27.49.62.55,1.05h-3.4c.07-.44.26-.79.57-1.06.31-.27.69-.4,1.14-.4m3.03,1.97c0-.61-.13-1.15-.39-1.62-.26-.47-.62-.83-1.08-1.09-.46-.26-.98-.39-1.56-.39s-1.12.13-1.59.39c-.47.26-.84.63-1.1,1.09-.27.47-.4.99-.4,1.57s.14,1.12.41,1.59c.27.47.66.83,1.16,1.09.5.26,1.08.39,1.74.39.52,0,.98-.08,1.39-.25s.75-.41,1.02-.73l-.75-.86c-.43.43-.97.65-1.62.65-.52,0-.95-.13-1.29-.39-.35-.26-.56-.61-.64-1.05h4.7c.01-.18.02-.32.02-.41m-8.89-2.15v-.87h-1.33v5.99h1.4v-2.9c0-.6.15-1.05.46-1.37s.73-.48,1.28-.48c.1,0,.21.01.33.03v-1.33c-1.02,0-1.73.31-2.13.94m-2.88,3.79c-.21.17-.47.25-.78.25-.27,0-.47-.08-.62-.23s-.21-.38-.21-.67v-2.85h1.6v-1.12h-1.6v-1.37h-1.4v1.37h-.99v1.12h.99v2.88c0,.66.18,1.16.54,1.5.36.34.87.51,1.52.51.26,0,.51-.03.75-.1.24-.07.44-.17.6-.3l-.39-1Zm-7.75.2c-.52,0-.94-.17-1.27-.51-.33-.34-.5-.8-.5-1.36s.17-1.01.5-1.36c.33-.34.76-.52,1.27-.52s.94.17,1.28.52c.34.34.5.8.5,1.36s-.17,1.01-.5,1.36c-.34.34-.76.51-1.28.51m0,1.2c.61,0,1.16-.13,1.65-.39.49-.26.86-.63,1.14-1.09s.41-1,.41-1.59-.14-1.12-.41-1.58c-.27-.46-.65-.83-1.14-1.09-.49-.26-1.04-.39-1.65-.39s-1.15.13-1.64.39c-.49.26-.87.62-1.14,1.09-.27.46-.41.99-.41,1.58s.14,1.12.41,1.59c.27.47.65.83,1.14,1.09.49.26,1.03.39,1.64.39m-4.39-7.92l-2.63,6.05-2.61-6.05h-1.58l3.43,7.85h1.43l3.42-7.85h-1.46Z"></path><path class="cls-2" d="m83.04,18.13c-3.85-13.95,6.01-16.41,6.01-16.41,0,0,9.72-2.95,13.57,11,3.85,13.95.37,39.53.37,39.53,0,0-16.1-20.17-19.95-34.12"></path><path class="cls-1" d="m143.94,45.33c1.3-3.22-.26-6.89-3.48-8.19-.8-.32-1.63-.47-2.45-.46h0s-.08,0-.13.01c-.51.02-1,.11-1.49.25-13.86,2.5-25.08,17.96-25.08,17.96,0,0,5.9-3.65,11.83-5.03,5.93-1.38,14.68-.62,14.68-.62v-.02c2.59.11,5.08-1.37,6.1-3.9"></path><path class="cls-3" d="m163.6,60.88h-7.19c1.81-.58,2.94-1.27,3.06-1.34.65-.41.85-1.28.44-1.93-.41-.66-1.28-.85-1.93-.45-.24.15-5.88,3.57-12.61.28-8.54-4.18-15.84-4.86-24.42-2.28-7.8,2.34-12.84,5.01-14.11,5.72h-3.4c-1.27-.71-6.3-3.38-14.11-5.72-8.58-2.57-15.88-1.89-24.42,2.28-6.73,3.29-12.37-.12-12.61-.28-.65-.41-1.52-.21-1.93.44-.41.66-.22,1.52.44,1.94.11.07,1.24.76,3.06,1.34h-7.19c-.78,0-1.4.63-1.4,1.4s.63,1.4,1.4,1.4h53.66l.46.73c1.01,1.61,2.69,2.58,4.51,2.58s3.5-.96,4.51-2.58l.46-.73h53.36c.78,0,1.4-.63,1.4-1.4s-.63-1.4-1.4-1.4Zm-41.85-3.03c7.84-2.35,14.54-1.72,22.38,2.12.79.38,1.56.67,2.31.92h-33.11c2.22-.94,5.06-2.02,8.42-3.03Zm-55.62,2.12c7.84-3.84,14.54-4.47,22.38-2.12,3.36,1.01,6.2,2.09,8.42,3.03h-33.11c.76-.24,1.53-.53,2.31-.92Z"></path><path class="cls-4" d="m71.45,46.39c-9.25-5.69-5.1-12.08-5.1-12.08,0,0,3.83-6.59,13.08-.91,9.25,5.69,20.42,21.5,20.42,21.5,0,0-19.15-2.83-28.4-8.51"></path><path class="cls-5" d="m132.02,27.27c6.59-11.22-1.4-15.64-1.4-15.64,0,0-7.75-4.82-14.34,6.4-6.59,11.22-9.51,34.23-9.51,34.23,0,0,18.67-13.76,25.25-24.98"></path></svg>